<?xml version="1.0"?>
<svg width="24" height="24" xmlns="http://www.w3.org/2000/svg" xmlns:svg="http://www.w3.org/2000/svg">
 <g class="layer">
  <title>Layer 1</title>
  <rect fill="#ffffff" height="19" id="svg_3" rx="0.00001" ry="0.00001" stroke="#ffffff" stroke-width="5" width="19" x="2.5" y="2.5"/>
  <path d="m0,0l24,0l0,24l-24,0l0,-24z" fill="none" id="svg_1"/>
  <path d="m3,3l18,0a1,1 0 0 1 1,1l0,16a1,1 0 0 1 -1,1l-18,0a1,1 0 0 1 -1,-1l0,-16a1,1 0 0 1 1,-1zm9.06,8.683l-6.412,-5.445l-1.295,1.524l7.72,6.555l7.581,-6.56l-1.308,-1.513l-6.285,5.439l-0.001,0z" fill="#000" id="svg_2"/>
 </g>
</svg>