<?xml version="1.0"?>
<svg width="24" height="24" xmlns="http://www.w3.org/2000/svg" xmlns:svg="http://www.w3.org/2000/svg">
 <g class="layer">
  <title>Layer 1</title>
  <rect fill="#ffffff" height="19" id="svg_3" rx="0.00001" ry="0.00001" stroke="#ffffff" stroke-width="5" width="19" x="2.5" y="2.5"/>
  <path d="m0,0l24,0l0,24l-24,0l0,-24z" fill="none" id="svg_1"/>
  <path d="m22.162,5.656a8.384,8.384 0 0 1 -2.402,0.658a4.196,4.196 0 0 0 1.84,-2.314c-0.82,0.488 -1.719,0.83 -2.656,1.015a4.182,4.182 0 0 0 -7.126,3.814a11.874,11.874 0 0 1 -8.62,-4.37a4.168,4.168 0 0 0 -0.566,2.103c0,1.45 0.738,2.731 1.86,3.481a4.168,4.168 0 0 1 -1.894,-0.523l0,0.052a4.185,4.185 0 0 0 3.355,4.101a4.21,4.21 0 0 1 -1.89,0.072a4.185,4.185 0 0 0 3.907,2.905a8.394,8.394 0 0 1 -6.191,1.732a11.83,11.83 0 0 0 6.41,1.88c7.693,0 11.9,-6.373 11.9,-11.9c0,-0.18 -0.005,-0.362 -0.013,-0.54a8.496,8.496 0 0 0 2.087,-2.165l-0.001,-0.001z" fill="#000" id="svg_2"/>
 </g>
</svg>